<?xml version="1.0" encoding="utf-8"?>
<!-- Generator: Adobe Illustrator 22.1.0, SVG Export Plug-In . SVG Version: 6.00 Build 0)  -->
<svg version="1.1" id="Ebene_1" xmlns="http://www.w3.org/2000/svg" xmlns:xlink="http://www.w3.org/1999/xlink" x="0px" y="0px"
	 viewBox="0 0 24 24" style="enable-background:new 0 0 24 24;" xml:space="preserve">
<style type="text/css">
	.st0{fill:#EF6C00;}
</style>
<path class="st0" d="M11,5V1h2v4H11z M17.6,7.7l-1.4-1.4l2.8-2.9l1.4,1.4L17.6,7.7z M19,13v-2h4v2H19z M11,23v-4h2v4H11z M6.3,7.7
	L3.5,4.9l1.4-1.4l2.8,2.8L6.3,7.7z M19.1,20.5l-2.8-2.9l1.4-1.4l2.9,2.8L19.1,20.5z M1,13v-2h4v2H1z M4.9,20.5l-1.4-1.4l2.8-2.8
	L7.1,17l0.7,0.7L4.9,20.5z M12,18c-1.7,0-3.1-0.6-4.3-1.8S6,13.7,6,12s0.6-3.1,1.8-4.3S10.3,6,12,6s3.1,0.6,4.3,1.8S18,10.3,18,12
	s-0.6,3.1-1.8,4.3S13.7,18,12,18z M12,16c1.1,0,2-0.4,2.8-1.2S16,13.1,16,12s-0.4-2-1.2-2.8S13.1,8,12,8s-2,0.4-2.8,1.2S8,10.9,8,12
	s0.4,2,1.2,2.8S10.9,16,12,16z"/>
</svg>
